<?xml version="1.0" standalone="no"?>
<!DOCTYPE svg PUBLIC "-//W3C//DTD SVG 20010904//EN"
 "http://www.w3.org/TR/2001/REC-SVG-20010904/DTD/svg10.dtd">
<svg version="1.0" xmlns="http://www.w3.org/2000/svg"
 width="282.000000pt" height="282.000000pt" viewBox="0 0 282.000000 282.000000"
 preserveAspectRatio="xMidYMid meet">
<metadata>
Created by potrace 1.11, written by Peter Selinger 2001-2013
</metadata>
<g transform="translate(0.000000,282.000000) scale(0.100000,-0.100000)"
fill="#000000" stroke="none">
<path d="M1559 2606 c-23 -26 -45 -46 -48 -46 -4 0 -12 13 -18 29 -8 24 -15
29 -32 24 -12 -3 -30 -17 -41 -31 -11 -14 -21 -23 -23 -21 -1 2 -7 13 -13 23
-15 29 -41 28 -66 -3 -32 -38 -44 -43 -45 -20 -2 23 -20 49 -34 49 -14 0 -92
-81 -127 -132 -36 -52 -56 -62 -46 -24 9 38 -4 68 -29 64 -15 -2 -33 -23 -57
-65 -19 -34 -39 -63 -43 -63 -5 0 -6 4 -3 9 3 4 0 16 -8 26 -25 34 -49 2 -116
-150 -40 -91 -76 -157 -93 -174 -84 -77 -232 -327 -251 -423 -3 -13 -9 -45
-15 -73 -5 -27 -8 -108 -7 -180 5 -226 67 -371 223 -522 l74 -72 -30 -53 c-37
-68 -85 -204 -106 -305 -9 -43 -19 -87 -22 -98 -3 -11 -8 -86 -10 -167 l-5
-148 -47 0 c-25 -1 -140 -2 -256 -3 l-210 -2 -3 -27 -3 -28 1360 0 1361 0 0
46 0 47 -361 -7 c-199 -3 -365 -9 -370 -11 -11 -7 -23 15 -25 45 -3 49 -14
145 -18 166 -2 12 -7 45 -10 75 -6 51 -13 101 -21 159 -2 14 -7 52 -11 85 -3
33 -8 63 -10 66 -2 3 -6 33 -10 67 -6 57 -5 62 14 62 28 0 90 27 131 58 20 15
43 32 50 37 8 6 47 42 86 81 52 51 81 91 107 145 35 73 63 150 72 199 2 14 9
45 15 70 9 41 8 195 -1 245 -3 11 -8 38 -12 60 -27 137 -90 258 -183 355 -40
41 -73 77 -73 79 0 3 41 46 90 97 66 67 89 96 84 109 -5 12 -15 16 -35 13 -25
-4 -27 -2 -27 25 1 33 -25 59 -50 50 -12 -5 -14 -2 -8 13 23 56 13 86 -26 79
-17 -4 -86 -54 -126 -92 -21 -20 -34 -15 -26 10 4 12 11 25 16 28 16 10 17 67
2 80 -11 9 -21 9 -42 0 -33 -16 -35 -16 -38 5 -3 18 -22 34 -41 34 -7 0 -10 6
-7 14 7 19 -22 45 -45 39 -10 -2 -35 -25 -56 -49 -42 -48 -60 -56 -51 -21 16
65 -37 94 -70 37 -25 -42 -43 -46 -41 -8 1 21 -4 35 -19 45 -21 13 -25 11 -65
-31z"/>
</g>
</svg>
